<svg width="46" height="41" viewBox="0 0 46 41" fill="none" xmlns="http://www.w3.org/2000/svg">
<path d="M15.8125 35.8801H1.4375L3.10212 29.9453C3.2131 29.5493 3.4695 29.1977 3.83053 28.9465C4.19156 28.6953 4.63648 28.5589 5.0945 28.559H12.1555C13.0985 28.559 13.9193 29.1305 14.1479 29.9453L15.8125 35.8801ZM30.1875 35.8801H15.8125L17.4771 29.9453C17.5881 29.5493 17.8445 29.1977 18.2055 28.9465C18.5666 28.6953 19.0115 28.5589 19.4695 28.559H26.5305C27.4735 28.559 28.2943 29.1305 28.5229 29.9453L30.1875 35.8801ZM44.5625 35.8801H30.1875L31.8521 29.9453C31.9631 29.5493 32.2195 29.1977 32.5805 28.9465C32.9416 28.6953 33.3865 28.5589 33.8445 28.559H40.9055C41.8485 28.559 42.6693 29.1305 42.8979 29.9453L44.5625 35.8801ZM23 28.5578H8.625L10.2896 22.623C10.4006 22.2269 10.657 21.8753 11.018 21.6241C11.3791 21.3729 11.824 21.2365 12.282 21.2367H19.343C20.286 21.2367 21.1068 21.8081 21.3354 22.623L23 28.5578ZM37.375 28.5578H23L24.6646 22.623C24.7756 22.2269 25.032 21.8753 25.393 21.6241C25.7541 21.3729 26.199 21.2365 26.657 21.2367H33.718C34.661 21.2367 35.4818 21.8081 35.7104 22.623L37.375 28.5578Z" fill="#FFCC5C"/>
<path d="M30.1875 21.2367H15.8125L17.4771 15.302C17.5881 14.9059 17.8445 14.5543 18.2055 14.3031C18.5666 14.0519 19.0115 13.9155 19.4695 13.9156H26.5305C27.4735 13.9156 28.2943 14.4871 28.5229 15.302L30.1875 21.2367Z" fill="#FFCC5C"/>
<path d="M14.1479 29.9453C14.0369 29.5493 13.7805 29.1977 13.4195 28.9465C13.0584 28.6953 12.6135 28.5589 12.1555 28.559H10.6806L11.3261 30.8614C11.432 31.2392 11.44 31.6335 11.3493 32.0144C11.2587 32.3953 11.0719 32.7528 10.8031 33.0597C10.5342 33.3667 10.1905 33.6149 9.79787 33.7857C9.40527 33.9565 8.97417 34.0453 8.53731 34.0454H1.95356L1.4375 35.8801H15.8125L14.1479 29.9453ZM28.5229 29.9453C28.4119 29.5493 28.1555 29.1977 27.7945 28.9465C27.4334 28.6953 26.9885 28.5589 26.5305 28.559H25.0556L25.7011 30.8614C25.807 31.2392 25.815 31.6335 25.7243 32.0144C25.6337 32.3953 25.4469 32.7528 25.1781 33.0597C24.9092 33.3667 24.5655 33.6149 24.1729 33.7857C23.7803 33.9565 23.3492 34.0453 22.9123 34.0454H16.3286L15.8125 35.8801H30.1875L28.5229 29.9453ZM42.8979 29.9453C42.7869 29.5493 42.5305 29.1977 42.1695 28.9465C41.8084 28.6953 41.3635 28.5589 40.9055 28.559H39.4306L40.0761 30.8614C40.182 31.2392 40.19 31.6335 40.0993 32.0144C40.0087 32.3953 39.8219 32.7528 39.5531 33.0597C39.2842 33.3667 38.9405 33.6149 38.5479 33.7857C38.1553 33.9565 37.7242 34.0453 37.2873 34.0454H30.7036L30.1875 35.8801H44.5625L42.8979 29.9453ZM21.3354 22.623C21.2244 22.2269 20.968 21.8753 20.607 21.6241C20.2459 21.3729 19.801 21.2365 19.343 21.2367H17.8681L18.5136 23.5391C18.6195 23.9169 18.6275 24.3112 18.5368 24.6921C18.4462 25.073 18.2594 25.4305 17.9906 25.7374C17.7217 26.0443 17.378 26.2926 16.9854 26.4634C16.5928 26.6342 16.1617 26.7229 15.7248 26.723H9.14106L8.625 28.5578H23L21.3354 22.623ZM35.7104 22.623C35.5994 22.2269 35.343 21.8753 34.982 21.6241C34.6209 21.3729 34.176 21.2365 33.718 21.2367H32.2431L32.8886 23.5391C32.9945 23.9169 33.0025 24.3112 32.9118 24.6921C32.8212 25.073 32.6344 25.4305 32.3656 25.7374C32.0967 26.0443 31.753 26.2926 31.3604 26.4634C30.9678 26.6342 30.5367 26.7229 30.0998 26.723H23.5161L23 28.5578H37.375L35.7104 22.623Z" fill="#F7B546"/>
<path d="M28.5229 15.302C28.4119 14.9059 28.1555 14.5543 27.7945 14.3031C27.4334 14.0519 26.9885 13.9155 26.5305 13.9156H25.0556L25.7011 16.2181C25.807 16.5958 25.815 16.9901 25.7243 17.371C25.6337 17.7519 25.4469 18.1094 25.1781 18.4163C24.9092 18.7233 24.5655 18.9715 24.1729 19.1423C23.7803 19.3131 23.3492 19.4019 22.9123 19.402H16.3286L15.8125 21.2367H30.1875L28.5229 15.302Z" fill="#F7B546"/>
<path d="M29.325 10.8317L31.625 10.3192L29.325 9.80671L28.75 7.75671L28.175 9.80671L25.875 10.3192L28.175 10.8317L28.75 12.8817L29.325 10.8317ZM34.9312 13.2661L36.6562 12.8817L34.9312 12.4973L34.5 10.9598L34.0688 12.4973L32.3438 12.8817L34.0688 13.2661L34.5 14.8036L34.9312 13.2661ZM34.0688 8.01296L35.2188 7.75671L34.0688 7.50046L33.7812 6.47546L33.4937 7.50046L32.3438 7.75671L33.4937 8.01296L33.7812 9.03796L34.0688 8.01296Z" fill="#FFCC5C"/>
</svg>
