<svg width="52" height="47" viewBox="0 0 52 47" fill="none" xmlns="http://www.w3.org/2000/svg">
<path d="M26 47C40.3594 47 52 36.4787 52 23.5C52 10.5214 40.3594 0 26 0C11.6406 0 0 10.5214 0 23.5C0 36.4787 11.6406 47 26 47Z" fill="#239FDB"/>
<path fill-rule="evenodd" clip-rule="evenodd" d="M29.327 11.0588V19.7576L25.0084 15.872H23.9287L22.8491 14.9007H18.5304V15.872H16.4791L13.2401 12.9579H8.81348V36.3148L19.9092 46.2977C21.9299 46.7545 24.0045 46.9903 26.0881 47C32.9603 47 39.5511 44.5438 44.4105 40.1717C49.2699 35.7997 51.9999 29.8699 51.9999 23.6868C51.9929 22.9854 51.9508 22.2847 51.8736 21.5867L43.3626 13.9293H38.9954L35.805 11.0588H29.327Z" fill="#0B5ECD"/>
<path fill-rule="evenodd" clip-rule="evenodd" d="M29.2224 11.0588V19.6289H24.9258V15.8008H22.7775V14.8438H18.4808V15.8008H16.3325V18.6719H13.2175V12.9298H8.81348V35.9412H9.88763V26.8065H10.9081V28.7205H14.1842V35.9412H15.2584V24.4139H17.8492V22.4999H20.294V24.4139H22.7775V23.4569H21.3671V21.5429H16.7751V23.4569H14.1842V27.7635H11.9822V25.8495H9.88763V13.8868H12.1433V19.6289H17.4067V16.7579H19.555V15.8008H21.7033V16.7579H23.8516V20.5859H30.2965V12.0158H34.5931V21.5429H38.8897V14.8438H42.1122V25.371H39.4268V23.4569H34.5931V24.4139H38.3527V26.328H42.1122V35.9412H43.1864V13.8868H37.8156V20.5859H35.6673V11.0588H29.2224ZM27.0988 21.5409H27.0451C26.9205 21.5482 26.8021 21.5924 26.7089 21.6664L19.729 27.4085C19.6483 27.4734 19.5916 27.5587 19.5665 27.653C19.5414 27.7473 19.549 27.8462 19.5884 27.9366C19.6277 28.027 19.697 28.1045 19.7869 28.159C19.8769 28.2136 19.9833 28.2425 20.0921 28.242H20.6292V35.4176C20.6292 35.5445 20.6857 35.6663 20.7865 35.756C20.8872 35.8458 21.0238 35.8961 21.1662 35.8961H32.9819C33.1244 35.8961 33.261 35.8458 33.3617 35.756C33.4624 35.6663 33.519 35.5445 33.519 35.4176V28.242H34.0561C34.1646 28.2425 34.2707 28.2137 34.3605 28.1594C34.4503 28.1051 34.5195 28.0278 34.559 27.9378C34.5986 27.8478 34.6066 27.7492 34.582 27.6551C34.5574 27.5609 34.5014 27.4756 34.4213 27.4103L33.519 26.6686V23.9412C33.519 23.8143 33.4624 23.6926 33.3617 23.6028C33.261 23.5131 33.1244 23.4627 32.9819 23.4627C32.8395 23.4627 32.7029 23.5131 32.6021 23.6028C32.5014 23.6926 32.4448 23.8143 32.4448 23.9412V25.7844L27.4393 21.6692C27.3463 21.592 27.2257 21.5465 27.0988 21.5409ZM27.0741 22.675L32.6811 27.2859H21.467L27.0741 22.675ZM21.7033 28.4487H32.4448V34.9401H29.2224V31.5906C29.2224 31.4637 29.1658 31.3419 29.0651 31.2522C28.9643 31.1624 28.8277 31.1121 28.6853 31.1121H25.4628C25.3204 31.1121 25.1838 31.1624 25.0831 31.2522C24.9823 31.3419 24.9258 31.4637 24.9258 31.5906V34.9401H21.7033V28.4487ZM25.9999 32.0691H28.1482V34.9401H25.9999V32.0691Z" fill="white"/>
</svg>
