<svg width="41" height="39" viewBox="0 0 41 39" fill="none" xmlns="http://www.w3.org/2000/svg">
<g clip-path="url(#clip0_1_16)">
<path d="M14.4141 8.53125C16.8907 8.53125 18.8984 6.62146 18.8984 4.26562C18.8984 1.90979 16.8907 0 14.4141 0C11.9374 0 9.92969 1.90979 9.92969 4.26562C9.92969 6.62146 11.9374 8.53125 14.4141 8.53125Z" fill="#88B8F9"/>
<path d="M31.7109 21.9375H26.5859C26.416 21.9375 26.2531 21.8733 26.1329 21.759C26.0128 21.6447 25.9453 21.4897 25.9453 21.3281V15.2344C25.9453 15.0728 26.0128 14.9178 26.1329 14.8035C26.2531 14.6892 26.416 14.625 26.5859 14.625H31.7109C31.8808 14.625 32.0438 14.6892 32.1639 14.8035C32.2841 14.9178 32.3516 15.0728 32.3516 15.2344V21.3281C32.3516 21.4897 32.2841 21.6447 32.1639 21.759C32.0438 21.8733 31.8808 21.9375 31.7109 21.9375ZM27.2266 20.7188H31.0703V15.8438H27.2266V20.7188Z" fill="#F8CF6D"/>
<path d="M30.7499 14.9602C30.6721 14.5636 30.4321 14.2127 30.0826 13.9842C29.7332 13.7557 29.3027 13.6684 28.8857 13.7414L22.8574 14.7834L19.7952 10.5544C19.7952 10.5056 19.7183 10.4569 19.6799 10.4081C19.4992 10.2018 19.2729 10.0358 19.0171 9.92206C18.7614 9.80831 18.4824 9.74957 18.2 9.75H10.615C10.3785 9.74978 10.1439 9.7911 9.92315 9.87188C9.49619 10.0281 9.14183 10.3242 8.92378 10.7067L5.3555 16.8858L5.31065 16.9589C5.21088 17.1364 5.14987 17.3312 5.13128 17.5317L4.49065 24.2348C4.45158 24.6389 4.58283 25.0411 4.85555 25.3531C5.12827 25.6651 5.52011 25.8613 5.94487 25.8984C6.36963 25.9356 6.79252 25.8108 7.12051 25.5513C7.44849 25.2919 7.6547 24.9192 7.69378 24.5152L8.29597 18.1898L9.6669 16.2338L9.28894 24.9844V37.1719C9.27534 37.6567 9.46479 38.1269 9.8156 38.4788C10.1664 38.8308 10.6498 39.0358 11.1596 39.0487C11.6693 39.0617 12.1635 38.8815 12.5335 38.5478C12.9036 38.2141 13.1191 37.7542 13.1327 37.2694L13.7733 26.2031H15.0546L15.6952 37.2694C15.7088 37.7542 15.9243 38.2141 16.2943 38.5478C16.6644 38.8815 17.1586 39.0617 17.6683 39.0487C18.178 39.0358 18.6615 38.8308 19.0123 38.4788C19.3631 38.1269 19.5525 37.6567 19.5389 37.1719V24.9844L19.1417 15.472L20.8202 17.3672L20.8778 17.4281C21.0575 17.6361 21.2926 17.7944 21.5585 17.8866C21.8244 17.9788 22.1115 18.0014 22.3897 17.9522L29.4366 16.7334C29.6459 16.7003 29.8462 16.628 30.0258 16.5206C30.2054 16.4132 30.3609 16.273 30.4831 16.108C30.6052 15.943 30.6917 15.7566 30.7376 15.5596C30.7834 15.3625 30.7875 15.1588 30.7499 14.9602Z" fill="#2F79F0"/>
<path d="M25.3047 39C26.0123 39 26.5859 38.4543 26.5859 37.7812C26.5859 37.1082 26.0123 36.5625 25.3047 36.5625C24.5971 36.5625 24.0234 37.1082 24.0234 37.7812C24.0234 38.4543 24.5971 39 25.3047 39Z" fill="#0C3798"/>
<path d="M32.9922 39C33.6998 39 34.2734 38.4543 34.2734 37.7812C34.2734 37.1082 33.6998 36.5625 32.9922 36.5625C32.2846 36.5625 31.7109 37.1082 31.7109 37.7812C31.7109 38.4543 32.2846 39 32.9922 39Z" fill="#0C3798"/>
<path d="M34.9141 19.5H23.3828C22.6752 19.5 22.1016 20.0457 22.1016 20.7188V36.5625C22.1016 37.2356 22.6752 37.7812 23.3828 37.7812H34.9141C35.6217 37.7812 36.1953 37.2356 36.1953 36.5625V20.7188C36.1953 20.0457 35.6217 19.5 34.9141 19.5Z" fill="#EE7231"/>
<path d="M25.3047 34.125C25.1348 34.125 24.9718 34.0608 24.8517 33.9465C24.7316 33.8322 24.6641 33.6772 24.6641 33.5156V23.7656C24.6641 23.604 24.7316 23.449 24.8517 23.3347C24.9718 23.2205 25.1348 23.1562 25.3047 23.1562C25.4746 23.1562 25.6375 23.2205 25.7577 23.3347C25.8778 23.449 25.9453 23.604 25.9453 23.7656V33.5156C25.9453 33.6772 25.8778 33.8322 25.7577 33.9465C25.6375 34.0608 25.4746 34.125 25.3047 34.125ZM29.1484 34.125C28.9785 34.125 28.8156 34.0608 28.6954 33.9465C28.5753 33.8322 28.5078 33.6772 28.5078 33.5156V23.7656C28.5078 23.604 28.5753 23.449 28.6954 23.3347C28.8156 23.2205 28.9785 23.1562 29.1484 23.1562C29.3183 23.1562 29.4813 23.2205 29.6014 23.3347C29.7216 23.449 29.7891 23.604 29.7891 23.7656V33.5156C29.7891 33.6772 29.7216 33.8322 29.6014 33.9465C29.4813 34.0608 29.3183 34.125 29.1484 34.125ZM32.9922 34.125C32.8223 34.125 32.6593 34.0608 32.5392 33.9465C32.4191 33.8322 32.3516 33.6772 32.3516 33.5156V23.7656C32.3516 23.604 32.4191 23.449 32.5392 23.3347C32.6593 23.2205 32.8223 23.1562 32.9922 23.1562C33.1621 23.1562 33.325 23.2205 33.4452 23.3347C33.5653 23.449 33.6328 23.604 33.6328 23.7656V33.5156C33.6328 33.6772 33.5653 33.8322 33.4452 33.9465C33.325 34.0608 33.1621 34.125 32.9922 34.125Z" fill="#F8CF6D"/>
</g>
<defs>
<clipPath id="clip0_1_16">
<rect width="41" height="39" fill="white"/>
</clipPath>
</defs>
</svg>
